# xmcd CD database file
#
# Track frame offsets:
#	150
#	17387
#	29091
#	48235
#	71718
#	90457
#	109996
#	128176
#	142358
#	157327
#	171116
#	184244
#	196175
#	210341
#	226524
#	242827
#	257261
#	274108
#	297952
#	310473
#	325083
#
# Disc length: 4516 seconds
#
# Revision: 0
# Processed by: cddbd v1.5.2PL0 Copyright (c) Steve Scherf et al.
# Submitted via: CDex 2.16
#
DISCID=3111a215
DTITLE=Stony Plain Records - 35 Years of Stony Plain [CD1]
DYEAR=2011
DGENRE=Blues
TTITLE0=Maria Muldaur - The Diplomat
TTITLE1=Jeff Healey - The Wildcat
TTITLE2=Kevin Breit - Looking for a Brand New Wolrd
TTITLE3=Corb Lund - Horse Soldier, Horse Soldier
TTITLE4=Steve Earle - Ben McCulloch
TTITLE5=Ian Tyson - Blaino's Song
TTITLE6=Tim Hus - Country Music Lament
TTITLE7=Gary Fjellgaard - Still in the Running
TTITLE8=Ray Bonneville - Canary Yellow Car
TTITLE9=Asleep at the Wheel - That's Your Red Wagon
TTITLE10=Sunny and Her Joy Boys - Strictly from Dixie
TTITLE11=Amos Garrett - Get Way Back
TTITLE12=David Wilcox - Bend a Little
TTITLE13=New Guitar Summit - Shivers
TTITLE14=Spirit of the West - Our Station
TTITLE15=Emmylou Harris - Wheels
TTITLE16=Blue Rodeo - Four Strong Winds
TTITLE17=Rodney Crowell - Closer to Heaven
TTITLE18=Bob Carpenter - Dreaming
TTITLE19=Bob Carpenter - Magdalena
TTITLE20=Bob Carpenter - Chameleon Man
EXTD=YEAR: 2011
EXTT0=
EXTT1=
EXTT2=
EXTT3=
EXTT4=
EXTT5=
EXTT6=
EXTT7=
EXTT8=
EXTT9=
EXTT10=
EXTT11=
EXTT12=
EXTT13=
EXTT14=
EXTT15=
EXTT16=
EXTT17=
EXTT18=
EXTT19=
EXTT20=
PLAYORDER=
